<?xml version="1.0" standalone="no"?>
<!DOCTYPE svg PUBLIC "-//W3C//DTD SVG 20010904//EN"
 "http://www.w3.org/TR/2001/REC-SVG-20010904/DTD/svg10.dtd">
<svg version="1.0" xmlns="http://www.w3.org/2000/svg"
 width="1734.000000pt" height="1734.000000pt" viewBox="0 0 1734.000000 1734.000000"
 preserveAspectRatio="xMidYMid meet">
<metadata>
Created by potrace 1.11, written by Peter Selinger 2001-2013
</metadata>
<g transform="translate(0.000000,1734.000000) scale(0.100000,-0.100000)"
fill="#000000" stroke="none">
<path d="M8640 17327 c-3 -3 -45 -10 -95 -16 -49 -6 -105 -13 -123 -16 -91
-12 -119 -16 -142 -20 -14 -3 -46 -7 -72 -10 -53 -6 -111 -14 -148 -20 -14 -3
-48 -7 -76 -10 -28 -3 -60 -7 -71 -9 -11 -3 -44 -7 -73 -11 -29 -4 -60 -8 -69
-10 -9 -1 -41 -6 -71 -10 -30 -4 -62 -9 -70 -10 -26 -5 -94 -14 -140 -20 -40
-5 -129 -19 -200 -30 -14 -2 -45 -7 -70 -10 -61 -8 -100 -14 -130 -20 -14 -3
-45 -7 -70 -10 -45 -6 -84 -12 -130 -20 -14 -2 -45 -7 -70 -10 -25 -3 -56 -8
-70 -10 -30 -6 -46 -8 -225 -35 -77 -11 -147 -22 -155 -25 -8 -2 -37 -6 -65
-10 -27 -3 -88 -12 -135 -20 -47 -8 -103 -17 -125 -20 -22 -3 -76 -12 -120
-20 -44 -7 -98 -16 -120 -19 -60 -9 -102 -16 -186 -31 -42 -8 -98 -17 -125
-20 -27 -4 -56 -8 -64 -10 -8 -3 -33 -7 -55 -10 -22 -3 -51 -8 -65 -11 -14 -2
-37 -7 -52 -9 -16 -3 -40 -7 -55 -10 -16 -3 -48 -7 -73 -11 -25 -3 -53 -8 -62
-10 -10 -3 -28 -7 -40 -9 -13 -2 -66 -11 -118 -20 -52 -9 -108 -18 -125 -21
-16 -2 -52 -9 -80 -14 -27 -5 -63 -12 -80 -15 -16 -3 -43 -7 -60 -10 -16 -3
-131 -24 -255 -47 -124 -22 -236 -42 -248 -44 -13 -1 -45 -7 -70 -13 -26 -6
-74 -15 -107 -21 -112 -21 -110 -20 -185 -35 -14 -3 -41 -8 -60 -11 -19 -3
-42 -7 -50 -9 -8 -2 -28 -7 -45 -9 -16 -3 -75 -15 -130 -26 -55 -11 -112 -23
-128 -25 -15 -3 -59 -12 -97 -20 -38 -8 -84 -17 -102 -20 -18 -3 -40 -8 -48
-10 -8 -2 -31 -7 -50 -10 -19 -3 -42 -8 -50 -10 -8 -2 -31 -7 -50 -10 -19 -3
-55 -11 -80 -16 -25 -6 -56 -13 -70 -15 -14 -3 -45 -10 -70 -15 -25 -6 -56
-13 -70 -15 -24 -4 -211 -45 -295 -64 -22 -5 -71 -16 -110 -25 -38 -8 -119
-27 -180 -41 -60 -13 -119 -26 -130 -28 -11 -2 -117 -27 -235 -56 -118 -29
-222 -54 -230 -56 -8 -2 -46 -11 -83 -20 l-69 -18 7 -145 c3 -80 8 -173 10
-206 2 -33 6 -114 9 -180 4 -66 8 -147 11 -180 3 -33 7 -112 10 -175 3 -63 7
-146 10 -185 3 -38 7 -110 10 -160 3 -49 8 -124 10 -165 3 -41 7 -115 10 -165
2 -49 7 -117 9 -150 3 -33 8 -109 11 -169 3 -60 7 -125 10 -145 2 -20 7 -90
10 -156 3 -66 8 -136 10 -155 2 -19 6 -80 9 -135 4 -55 9 -122 11 -150 3 -27
7 -93 10 -145 4 -52 8 -111 10 -130 2 -19 6 -80 10 -135 3 -55 8 -118 10 -140
2 -22 7 -78 10 -125 3 -47 8 -107 10 -135 2 -27 7 -85 10 -128 6 -81 10 -120
20 -247 10 -114 14 -158 20 -235 3 -38 7 -92 10 -120 2 -27 7 -81 10 -120 3
-38 8 -88 10 -110 2 -22 7 -71 10 -110 3 -38 9 -95 12 -125 6 -62 8 -80 18
-200 3 -47 8 -96 11 -110 2 -14 6 -59 9 -100 4 -41 8 -86 10 -99 3 -14 7 -63
11 -110 3 -47 8 -88 9 -91 2 -3 6 -43 10 -89 4 -46 8 -91 10 -100 1 -9 6 -45
9 -81 4 -36 9 -81 11 -100 2 -19 7 -60 10 -90 4 -30 8 -71 11 -90 2 -19 7 -60
10 -90 3 -30 7 -67 10 -82 2 -15 6 -49 9 -75 2 -27 7 -64 10 -83 2 -19 7 -55
10 -80 6 -50 11 -92 21 -160 3 -25 8 -58 10 -75 18 -147 19 -155 33 -250 6
-38 12 -86 15 -105 2 -19 9 -64 15 -100 5 -36 17 -110 26 -165 15 -103 61
-391 69 -435 3 -14 12 -70 22 -125 17 -103 20 -122 29 -165 2 -14 7 -41 10
-60 11 -69 84 -454 100 -520 2 -8 11 -51 20 -95 9 -44 25 -116 36 -160 10 -44
21 -89 23 -100 29 -145 195 -712 243 -825 3 -8 7 -19 9 -25 1 -5 21 -57 44
-115 149 -372 303 -666 518 -984 79 -117 272 -379 291 -396 3 -3 18 -21 33
-42 15 -20 33 -42 40 -50 7 -7 26 -29 42 -48 34 -41 129 -150 206 -235 30 -33
72 -80 95 -105 74 -83 638 -644 779 -775 76 -72 160 -150 187 -175 26 -25 65
-61 86 -79 71 -65 348 -315 383 -347 59 -52 233 -207 269 -239 19 -16 39 -35
45 -40 6 -6 61 -53 121 -105 61 -52 112 -98 115 -101 3 -3 39 -34 80 -69 41
-35 77 -67 80 -70 6 -7 513 -440 650 -555 52 -44 97 -82 100 -85 3 -3 48 -41
100 -85 52 -44 97 -82 100 -85 3 -3 26 -22 52 -43 26 -21 53 -43 60 -50 7 -7
83 -70 168 -141 85 -70 166 -138 180 -150 14 -11 50 -41 80 -66 30 -25 57 -47
60 -50 3 -3 41 -35 85 -70 44 -35 82 -67 85 -70 5 -6 208 -172 439 -360 31
-25 65 -53 76 -62 11 -10 65 -54 120 -98 55 -45 109 -89 120 -99 11 -9 54 -43
95 -76 41 -33 77 -62 80 -66 13 -14 177 -142 188 -146 9 -4 84 47 112 77 3 3
52 43 110 89 154 124 639 520 681 555 20 17 44 38 55 46 38 30 299 245 304
250 3 3 138 115 300 250 162 135 297 247 300 250 5 6 308 261 344 290 10 8 23
20 30 25 6 6 137 118 291 250 223 190 871 753 921 800 27 25 172 156 192 173
75 66 284 257 516 472 324 302 742 721 931 934 33 38 69 78 81 90 77 81 310
369 420 521 122 167 240 351 329 510 100 178 275 547 275 579 0 11 -146 156
-1349 1346 -947 936 -960 948 -980 943 -15 -4 -38 -76 -67 -208 -1 -5 -18 -63
-38 -129 -101 -328 -234 -583 -436 -836 -77 -96 -448 -476 -595 -610 -34 -30
-106 -96 -160 -146 -55 -51 -143 -129 -195 -174 -52 -45 -106 -92 -120 -104
-14 -12 -70 -60 -125 -106 -55 -47 -102 -87 -105 -90 -3 -3 -43 -37 -90 -75
-47 -38 -87 -71 -90 -74 -3 -4 -52 -44 -110 -91 -58 -46 -110 -89 -116 -95 -6
-5 -29 -23 -50 -40 -21 -16 -52 -42 -69 -56 -67 -57 -618 -495 -910 -723 -82
-64 -157 -122 -165 -129 -8 -7 -44 -34 -80 -62 -36 -27 -67 -52 -70 -55 -11
-12 -237 -180 -242 -180 -5 0 -669 494 -723 537 -5 4 -84 64 -175 133 -91 68
-192 145 -225 170 -33 25 -109 84 -170 130 -60 46 -112 87 -115 90 -3 3 -32
25 -65 50 -33 25 -62 47 -65 50 -3 3 -70 57 -149 120 -119 94 -319 257 -416
338 -116 97 -183 154 -209 177 -6 6 -31 28 -56 49 -76 67 -212 188 -280 251
-86 80 -394 387 -450 450 -334 375 -529 709 -675 1155 -41 125 -67 214 -80
270 -2 8 -11 43 -20 77 -19 72 -16 61 -50 218 -28 125 -82 404 -91 465 -3 19
-9 58 -14 85 -6 28 -12 67 -16 89 -3 21 -8 48 -10 60 -11 53 -79 509 -89 596
-3 25 -8 62 -10 83 -3 20 -7 54 -10 75 -2 20 -7 55 -9 77 -11 83 -26 212 -31
260 -10 113 -17 171 -20 195 -2 14 -7 59 -10 100 -3 41 -8 86 -10 100 -2 14
-7 59 -10 100 -4 41 -9 93 -11 115 -4 45 -12 133 -19 215 -6 81 -16 189 -20
235 -2 22 -7 81 -10 130 -4 50 -8 110 -10 135 -2 25 -6 77 -10 115 -3 39 -7
97 -10 130 -3 33 -7 101 -10 150 -3 50 -8 115 -10 145 -6 66 -12 164 -20 283
-3 48 -7 124 -10 170 -3 45 -7 118 -10 162 -3 44 -7 114 -10 155 -2 41 -7 120
-10 175 -3 55 -8 132 -10 172 -2 40 -1 74 3 77 9 5 362 91 542 131 58 13 197
45 310 70 113 26 216 49 230 51 14 3 41 9 60 14 19 5 82 18 140 30 121 25 112
24 210 45 41 9 86 18 100 20 14 2 70 14 125 25 55 12 111 24 125 26 14 3 104
20 200 39 154 30 244 47 330 61 14 3 48 9 75 14 28 5 66 12 85 14 19 3 44 7
55 10 11 2 69 11 129 21 59 9 116 18 125 20 9 1 41 6 71 9 30 4 78 11 105 16
28 5 68 12 91 14 22 2 67 9 100 15 32 5 82 13 109 16 28 3 61 8 75 10 14 2 61
9 105 15 44 6 91 13 105 15 14 2 48 7 76 10 28 3 59 7 70 9 10 2 44 7 74 11
30 3 66 8 80 10 14 2 43 6 65 9 37 5 63 8 165 21 19 3 55 7 80 10 79 9 134 16
156 20 12 2 48 6 80 10 33 4 70 9 84 11 52 10 167 12 210 4 25 -4 70 -10 100
-14 30 -3 91 -10 135 -16 44 -6 97 -13 118 -15 49 -6 116 -15 147 -20 51 -7
106 -15 150 -20 25 -4 56 -8 70 -10 14 -2 61 -9 106 -15 44 -6 90 -12 101 -14
11 -3 44 -7 73 -11 29 -4 60 -8 69 -10 9 -1 39 -6 66 -9 54 -7 96 -14 135 -21
14 -2 45 -7 70 -10 25 -3 56 -8 70 -10 14 -3 41 -7 60 -10 19 -3 62 -9 95 -15
33 -5 134 -21 225 -35 91 -15 176 -28 190 -31 14 -2 54 -9 90 -14 36 -6 76
-13 90 -16 14 -2 41 -7 60 -10 19 -2 46 -7 60 -10 14 -2 39 -7 55 -9 17 -3 46
-8 65 -11 19 -3 46 -8 60 -10 14 -3 72 -13 130 -23 58 -11 121 -22 140 -25 19
-3 46 -8 60 -11 14 -3 39 -8 55 -10 17 -3 37 -8 45 -10 8 -2 33 -6 55 -10 61
-9 715 -141 836 -169 59 -13 120 -27 135 -30 63 -11 91 -18 137 -31 26 -8 47
-12 47 -10 0 3 11 0 26 -5 14 -6 37 -12 52 -15 15 -2 96 -22 181 -44 l153 -39
46 41 c25 23 60 56 77 72 18 17 90 84 160 150 70 66 147 138 170 160 24 22 93
87 155 145 62 58 134 125 160 150 26 25 98 92 160 150 62 58 130 121 150 140
38 36 263 247 335 315 22 20 91 85 154 144 62 58 130 121 150 140 20 19 96 90
169 159 73 69 142 134 155 144 12 11 58 54 102 96 70 67 276 260 358 336 l27
25 -37 11 c-38 10 -307 76 -350 85 -13 3 -31 7 -40 10 -25 6 -353 84 -378 89
-11 2 -108 25 -215 49 -107 25 -213 49 -235 53 -22 5 -42 9 -45 9 -3 1 -16 4
-30 8 -22 6 -268 58 -330 71 -14 2 -115 23 -225 46 -110 23 -209 44 -220 46
-18 3 -77 15 -150 29 -16 4 -39 8 -50 10 -11 2 -65 13 -120 24 -117 23 -504
98 -555 106 -19 3 -66 12 -105 20 -38 8 -108 21 -155 29 -47 8 -96 17 -110 20
-24 5 -193 35 -235 42 -68 11 -374 65 -395 69 -14 3 -38 7 -55 10 -16 3 -43 7
-60 10 -16 3 -109 18 -205 34 -96 17 -188 32 -205 35 -16 3 -88 15 -160 26
-71 12 -141 23 -155 26 -14 2 -70 11 -125 19 -103 16 -121 19 -215 35 -30 5
-73 12 -95 15 -23 3 -52 8 -65 10 -14 3 -45 8 -70 11 -25 3 -54 8 -65 10 -10
2 -37 6 -60 9 -110 16 -173 26 -200 32 -11 2 -40 6 -65 9 -25 3 -67 9 -95 14
-27 5 -71 11 -96 15 -25 3 -57 8 -70 10 -13 2 -74 11 -135 20 -60 8 -121 17
-135 20 -13 2 -60 9 -104 15 -44 6 -91 13 -105 15 -65 9 -101 15 -180 25 -47
6 -96 13 -110 15 -14 3 -47 7 -75 10 -27 3 -57 8 -65 10 -8 2 -37 7 -65 10
-27 3 -63 7 -80 9 -16 2 -52 7 -80 11 -27 3 -61 9 -75 11 -43 8 -185 16 -190
11z"/>
<path d="M8197 12814 c-1 -1 -29 -4 -62 -8 -67 -7 -70 -7 -174 -31 -350 -81
-708 -321 -976 -654 -209 -261 -341 -591 -373 -933 -12 -132 -5 -375 14 -463
2 -11 6 -31 8 -45 30 -167 80 -318 158 -474 195 -390 583 -741 990 -896 l103
-39 -640 -1 -640 0 0 -912 0 -913 1280 -2 c1370 -2 1348 -3 1535 48 215 57
424 165 615 317 91 72 268 251 325 327 25 33 48 62 51 65 3 3 28 39 54 80 155
242 248 520 270 805 6 75 6 282 1 315 -3 14 -7 54 -11 90 -3 36 -15 103 -25
150 -11 47 -23 96 -26 109 -13 60 -80 225 -130 319 -92 175 -187 303 -336 452
-196 196 -400 332 -638 425 -52 21 -96 38 -97 39 -1 1 284 1 633 1 l634 0 1
25 c1 32 1 1793 0 1801 -1 5 -2537 9 -2544 3z"/>
</g>
</svg>
